<?xml version="1.0" encoding="UTF-8"?><svg id="uuid-b181b576-1a22-4e02-9a46-9a595664d8d0" xmlns="http://www.w3.org/2000/svg" viewBox="0 0 24 24"><path d="M21,23H3v-2h2v-1.8c0-.9,0-1.4,.1-1.9,.1-.5,.3-.9,.6-1.3,.3-.4,.7-.7,1.4-1.3l3.4-2.8-3.4-2.8c-.7-.6-1.1-.9-1.4-1.3-.3-.4-.5-.8-.6-1.3-.1-.5-.1-1-.1-1.9v-1.8H3V1H21V3h-2v1.8c0,.9,0,1.4-.1,1.9-.1,.5-.3,.9-.6,1.3-.3,.4-.7,.7-1.3,1.3l-3.4,2.8,3.4,2.8c.7,.6,1.1,.9,1.4,1.3,.3,.4,.5,.8,.6,1.3,.1,.5,.1,1,.1,1.9v1.8h2v2Zm-14-2h10v-1.8c0-.7,0-1.1,0-1.4,0-.2-.2-.4-.3-.6-.2-.2-.4-.5-1-.9l-3.6-3-3.6,3c-.6,.5-.9,.7-1,.9-.1,.2-.2,.4-.3,.6,0,.3,0,.6,0,1.4v1.8ZM7,3v1.8c0,.7,0,1.1,0,1.4,0,.2,.2,.4,.3,.6,.2,.2,.4,.5,1,.9l3.6,3,3.6-3c.6-.5,.9-.7,1-.9,.1-.2,.2-.4,.3-.6,0-.3,0-.6,0-1.4v-1.8H7Z" fill="#f3f3f3"/></svg>