<?xml version="1.0" encoding="UTF-8"?><svg id="uuid-09dac776-c30d-49a9-b925-45d5cfa1aa12" xmlns="http://www.w3.org/2000/svg" viewBox="0 0 29.1 26"><g id="uuid-29cdc063-7b34-4d05-978f-11c13c357047"><path d="M2,26H0v-1c0-2.6,0-3.9,.5-5.1,.6-1.6,1.9-2.8,3.4-3.4,1.2-.5,2.5-.5,5.1-.5h6.3v2h-6.3c-2.3,0-3.5,0-4.3,.3-1.1,.4-1.9,1.3-2.3,2.3-.3,.8-.3,2-.3,4.3v1Zm20.3-.9l-4.1-4.1,1.4-1.4,2.7,2.7,5.3-5.3,1.4,1.4-6.7,6.7ZM11,12.7c-3.5,0-6.3-2.8-6.3-6.3S7.5,0,11,0s6.3,2.8,6.3,6.3-2.8,6.3-6.3,6.3Zm0-10.7c-2.4,0-4.3,1.9-4.3,4.3s1.9,4.3,4.3,4.3,4.3-1.9,4.3-4.3-1.9-4.3-4.3-4.3Zm7.4,10.6l-.8-1.9,.9-.4c1.6-.7,2.7-2.2,2.7-4s-1.1-3.4-2.7-4l-.9-.4,.8-1.9,.9,.4c2.4,1,4,3.3,4,5.9s-1.6,4.9-4,5.9l-.9,.4Z" fill="#fff"/></g></svg>